# xmcd
# 
# Track frame offsets:
#     150
#     21949
#     39437
#     58518
#     79357
# 
# Disc length: 1342
# 
# Revision: 12
# Processed by: cddbd v1.5.2PL0 Copyright (c) Steve Scherf et al.
# Submitted via: fre:ac v1.1beta1pre5
# 
DISCID=38053c05
DTITLE=Queen - Innuendo (Bonus EP)
DYEAR=1991
DGENRE=Rock
TTITLE0=I Can't Live with You (1997 Rocks Retake)
TTITLE1=Lost Opportunity (B-Side)
TTITLE2=Ride the Wild Wind (Early Version with Guide Vocal)
TTITLE3=I'm Going Slightly Mad (Mad Mix)
TTITLE4=Headlong (Embryo with Guide Vocal)
EXTD=
EXTT0=
EXTT1=
EXTT2=
EXTT3=
EXTT4=
PLAYORDER=
